<svg width="22" height="20" viewBox="0 0 22 20" fill="none" xmlns="http://www.w3.org/2000/svg">
<g opacity="0.5">
<path d="M0.877197 7.43136C0.877493 7.25016 0.926583 7.07207 1.01977 6.91412C1.11295 6.75617 1.24712 6.62365 1.40942 6.52925L10.8772 1.01489L20.345 6.52925C20.5073 6.62365 20.6414 6.75617 20.7346 6.91412C20.8278 7.07207 20.8769 7.25016 20.8772 7.43136V17.9561C20.8772 18.2369 20.7601 18.5062 20.5518 18.7048C20.3434 18.9033 20.0608 19.0149 19.7661 19.0149H1.98831C1.69362 19.0149 1.41101 18.9033 1.20263 18.7048C0.99426 18.5062 0.877197 18.2369 0.877197 17.9561V7.43136Z" stroke="#03014C" stroke-width="1.75399"/>
<path d="M0.877136 7.89731L10.8771 13.7208L20.8771 7.89731" stroke="#03014C" stroke-width="1.75399" stroke-linecap="round"/>
</g>
</svg>
