<svg width="54" height="40" viewBox="0 0 54 40" fill="none" xmlns="http://www.w3.org/2000/svg">
<path d="M3.63545 40H12.1182V19.3991L0 10.3105V36.3645C0 38.3762 1.62989 40 3.63545 40Z" fill="#4285F4"/>
<path d="M41.2018 40H49.6845C51.6961 40 53.3199 38.3701 53.3199 36.3645V10.3105L41.2018 19.3991" fill="#34A853"/>
<path d="M41.2018 3.64576V19.3994L53.3199 10.3108V5.46349C53.3199 0.967648 48.1879 -1.59534 44.5949 1.10095" fill="#FBBC04"/>
<path d="M12.1182 19.3991V3.64551L26.66 14.5519L41.2018 3.64551V19.3991L26.66 30.3055" fill="#EA4335"/>
<path d="M0 5.46349V10.3108L12.1182 19.3994V3.64576L8.72508 1.10095C5.12598 -1.59534 0 0.967648 0 5.46349Z" fill="#C5221F"/>
</svg>
