<svg width="16" height="18" viewBox="0 0 16 18" fill="none" xmlns="http://www.w3.org/2000/svg">
<path opacity="0.5" d="M0.627709 14.6894C1.02907 13.679 1.61151 12.7612 2.34259 11.9872C3.07145 11.2109 3.93486 10.592 4.88513 10.1646C4.89364 10.1601 4.90215 10.1578 4.91066 10.1533C3.58514 9.13568 2.72344 7.47814 2.72344 5.60804C2.72344 2.51005 5.08513 0 8 0C10.9149 0 13.2766 2.51005 13.2766 5.60804C13.2766 7.47814 12.4149 9.13568 11.0893 10.1555C11.0979 10.16 11.1064 10.1623 11.1149 10.1668C12.0681 10.5942 12.9234 11.207 13.6574 11.9894C14.3878 12.7641 14.9702 13.6817 15.3723 14.6917C15.7673 15.6805 15.9804 16.7406 15.9999 17.8146C16.0005 17.8387 15.9965 17.8627 15.9882 17.8852C15.9799 17.9077 15.9675 17.9281 15.9516 17.9454C15.9358 17.9627 15.9168 17.9764 15.8959 17.9858C15.8749 17.9952 15.8525 18 15.8297 18H14.5531C14.4595 18 14.3851 17.9209 14.3829 17.8236C14.3404 16.0779 13.6808 14.443 12.5149 13.2038C11.3085 11.9216 9.70637 11.2161 8 11.2161C6.29363 11.2161 4.69151 11.9216 3.48514 13.2038C2.31919 14.443 1.65962 16.0779 1.61706 17.8236C1.61494 17.9231 1.54047 18 1.44685 18H0.170264C0.147549 18 0.125062 17.9952 0.104129 17.9858C0.0831957 17.9764 0.0642405 17.9627 0.048378 17.9454C0.0325155 17.9281 0.0200672 17.9077 0.0117683 17.8852C0.00346947 17.8627 -0.000514984 17.8387 5.34058e-05 17.8146C0.0213299 16.7337 0.231967 15.6822 0.627709 14.6894ZM8 9.49749C8.97659 9.49749 9.89573 9.09271 10.5872 8.35779C11.2787 7.62286 11.6596 6.64598 11.6596 5.60804C11.6596 4.5701 11.2787 3.59322 10.5872 2.85829C9.89573 2.12337 8.97659 1.71859 8 1.71859C7.02341 1.71859 6.10427 2.12337 5.41278 2.85829C4.7213 3.59322 4.34045 4.5701 4.34045 5.60804C4.34045 6.64598 4.7213 7.62286 5.41278 8.35779C6.10427 9.09271 7.02341 9.49749 8 9.49749Z" fill="#03014C"/>
</svg>
